# xmcd
#
# Track frame offsets:
#	150
#	21976
#	35449
#	57574
#	70862
#	84689
#	96649
#	108818
#
# Disc length: 1983 seconds
#
# Revision: 1349417051
# Processed by: cddbd v1.5.2PL0 Copyright (c) Steve Scherf et al.
# Submitted via: EZCDAudioConverter 8.3.2.1
#
DISCID=6c07bd08
DTITLE=Taj Mahal
DYEAR=1968
DGENRE=Blues
TTITLE0=Leaving Trunk
TTITLE1=Statesboro Blues
TTITLE2=Checkin' Up On My Baby
TTITLE3=Everybody's Got To Change Sometime
TTITLE4=E Z Rider
TTITLE5=Dust My Broom
TTITLE6=Diving Duck Blues
TTITLE7=The Celebrated Walkin' Blues
EXTD=
EXTT0=
EXTT1=
EXTT2=
EXTT3=
EXTT4=
EXTT5=
EXTT6=
EXTT7=
PLAYORDER=
